<svg width="294" height="55" viewBox="0 0 294 55" fill="none" xmlns="http://www.w3.org/2000/svg">
<g clip-path="url(#clip0_1300_5048)">
<path d="M35.1978 0H25.1978C11.3906 0 0.197754 11.1929 0.197754 25V29.75C0.197754 43.5571 11.3906 54.75 25.1978 54.75H35.1978C49.0049 54.75 60.1978 43.5571 60.1978 29.75V25C60.1978 11.1929 49.0049 0 35.1978 0Z" fill="#27348B"/>
<path d="M40.9087 14.25C40.9087 13.4216 41.5803 12.75 42.4087 12.75H44.5327C45.3612 12.75 46.0327 13.4216 46.0327 14.25V40.65C46.0327 41.4784 45.3612 42.15 44.5327 42.15H42.4087C41.5803 42.15 40.9087 41.4784 40.9087 40.65V14.25Z" fill="white"/>
<path d="M14.4478 15C14.4478 13.7574 15.4552 12.75 16.6978 12.75H26.6698C28.5458 12.75 30.0998 13.114 31.3318 13.842C32.5638 14.542 33.4738 15.466 34.0618 16.614C34.6498 17.734 34.9438 18.938 34.9438 20.226C34.9438 21.962 34.4678 23.376 33.5158 24.468C32.6224 25.4967 31.6244 26.159 30.5217 26.4548C30.455 26.4727 30.4078 26.5325 30.4078 26.6015C30.4078 26.678 30.4655 26.7419 30.5412 26.7522C31.2884 26.8539 32.098 27.1425 32.9698 27.618C33.9218 28.122 34.7338 28.878 35.4058 29.886C36.1058 30.894 36.4558 32.168 36.4558 33.708C36.4558 35.108 36.1338 36.452 35.4898 37.74C34.8738 39.028 33.8938 40.092 32.5498 40.932C31.2058 41.772 29.5118 42.192 27.4678 42.192H16.6978C15.4552 42.192 14.4478 41.1846 14.4478 39.942V15ZM25.1158 25.182C26.4878 25.182 27.6638 24.846 28.6438 24.174C29.6238 23.474 30.1138 22.396 30.1138 20.94C30.1138 19.512 29.6238 18.476 28.6438 17.832C27.6918 17.188 26.5158 16.866 25.1158 16.866H20.4458C19.8935 16.866 19.4458 17.3137 19.4458 17.866V24.182C19.4458 24.7343 19.8935 25.182 20.4458 25.182H25.1158ZM26.2498 38.034C27.7338 38.034 28.9938 37.684 30.0298 36.984C31.0938 36.284 31.6258 35.108 31.6258 33.456C31.6258 31.832 31.0938 30.67 30.0298 29.97C28.9938 29.27 27.7338 28.92 26.2498 28.92H20.4458C19.8935 28.92 19.4458 29.3677 19.4458 29.92V37.034C19.4458 37.5863 19.8935 38.034 20.4458 38.034H26.2498Z" fill="white"/>
</g>
<path d="M81.7041 36.667C83.5988 36.667 85.0269 36.2428 85.9884 35.3944C86.9781 34.5178 87.473 33.4007 87.473 32.0433C87.473 30.8839 87.0912 29.9224 86.3277 29.1589C85.5924 28.3953 84.4189 27.7873 82.807 27.3349L79.1165 26.232C77.9288 25.8644 76.8966 25.3978 76.02 24.8322C75.1433 24.2383 74.4646 23.5172 73.9839 22.6688C73.5314 21.7922 73.3052 20.7741 73.3052 19.6147C73.3052 17.4372 74.097 15.7405 75.6806 14.5245C77.2643 13.2802 79.371 12.658 82.001 12.658C83.5281 12.658 84.8855 12.8277 86.0732 13.1671C87.2892 13.4781 88.2365 13.8882 88.9152 14.3972C89.6222 14.9062 89.9757 15.4435 89.9757 16.0091C89.9757 16.3767 89.8767 16.7161 89.6788 17.0272C89.4808 17.31 89.2263 17.5362 88.9152 17.7059C88.2083 17.1403 87.2468 16.6454 86.0308 16.2212C84.843 15.797 83.5422 15.5849 82.1283 15.5849C80.4881 15.5849 79.1872 15.9526 78.2257 16.6878C77.2643 17.3948 76.7835 18.3704 76.7835 19.6147C76.7835 20.6045 77.1229 21.4104 77.8016 22.0326C78.5085 22.6547 79.6397 23.192 81.195 23.6445L83.7826 24.408C86.0166 25.0301 87.7699 25.9351 89.0425 27.1228C90.3433 28.3105 90.9937 29.9507 90.9937 32.0433C90.9937 34.2774 90.1737 36.0873 88.5335 37.4729C86.9216 38.8586 84.6451 39.5514 81.7041 39.5514C79.979 39.5514 78.4661 39.3676 77.1653 39C75.8927 38.6041 74.8888 38.1233 74.1536 37.5578C73.4466 36.9639 73.0931 36.3842 73.0931 35.8186C73.0931 35.3379 73.2345 34.942 73.5173 34.6309C73.8284 34.2915 74.1818 34.0512 74.5777 33.9098C75.2282 34.5319 76.1472 35.154 77.335 35.7762C78.5227 36.37 79.979 36.667 81.7041 36.667ZM111.885 25.426V30.3042H108.492V25.6806C108.492 24.2949 108.082 23.2768 107.262 22.6264C106.47 21.976 105.409 21.6508 104.08 21.6508C103.204 21.6508 102.355 21.7922 101.535 22.075C100.715 22.3578 100.022 22.683 99.4566 23.0506V30.3042H96.0631V23.2203C96.0631 22.6547 96.1762 22.174 96.4025 21.778C96.657 21.3821 97.0811 21.0004 97.675 20.6327C98.4385 20.152 99.4 19.742 100.559 19.4026C101.747 19.035 102.935 18.8512 104.123 18.8512C105.565 18.8512 106.837 19.0774 107.94 19.5299C109.043 19.954 109.863 20.5479 110.401 21.3114C110.57 21.4811 110.712 21.6367 110.825 21.778C110.938 21.9194 111.051 22.1033 111.164 22.3295C111.362 22.6688 111.532 23.1072 111.673 23.6445C111.815 24.1818 111.885 24.7756 111.885 25.426ZM124.314 25.5109V30.3042H120.92V25.6806C120.92 24.2949 120.524 23.2768 119.733 22.6264C118.941 21.976 117.88 21.6508 116.551 21.6508C115.562 21.6508 114.6 21.8629 113.667 22.2871C112.762 22.683 111.942 23.2627 111.207 24.0262L109.849 21.566C110.584 20.8307 111.546 20.1944 112.734 19.6571C113.921 19.1198 115.279 18.8512 116.806 18.8512C118.333 18.8512 119.648 19.0915 120.751 19.5723C121.882 20.053 122.759 20.7883 123.381 21.778C124.003 22.7678 124.314 24.0121 124.314 25.5109ZM96.0631 28.056H99.4566V38.9152C99.3152 38.9717 99.1031 39.0283 98.8203 39.0848C98.5375 39.1697 98.2265 39.2121 97.8871 39.2121C97.2932 39.2121 96.8408 39.099 96.5297 38.8727C96.2186 38.6182 96.0631 38.2223 96.0631 37.685V28.056ZM108.492 28.056H111.885V38.9152C111.744 38.9717 111.518 39.0283 111.207 39.0848C110.924 39.1697 110.627 39.2121 110.316 39.2121C109.694 39.2121 109.227 39.099 108.916 38.8727C108.633 38.6182 108.492 38.2223 108.492 37.685V28.056ZM120.92 28.056H124.314V38.9152C124.173 38.9717 123.946 39.0283 123.635 39.0848C123.352 39.1697 123.055 39.2121 122.744 39.2121C122.122 39.2121 121.656 39.099 121.345 38.8727C121.062 38.6182 120.92 38.2223 120.92 37.685V28.056ZM137.693 39.5939C135.035 39.5939 132.97 39.0707 131.5 38.0244C130.058 36.978 129.337 35.4651 129.337 33.4856C129.337 31.6474 129.945 30.2476 131.161 29.2861C132.405 28.2964 134.116 27.7025 136.293 27.5046L142.317 26.9107V25.723C142.317 24.309 141.892 23.2768 141.044 22.6264C140.196 21.976 139.05 21.6508 137.608 21.6508C136.449 21.6508 135.332 21.8205 134.257 22.1598C133.211 22.4992 132.278 22.8809 131.457 23.3051C131.231 23.1072 131.019 22.8809 130.821 22.6264C130.651 22.3436 130.567 22.0608 130.567 21.778C130.567 21.0428 130.977 20.4772 131.797 20.0813C132.56 19.6854 133.437 19.3885 134.427 19.1905C135.445 18.9643 136.519 18.8512 137.651 18.8512C140.111 18.8512 142.062 19.4026 143.504 20.5055C144.947 21.6084 145.668 23.3475 145.668 25.723V35.7762C145.668 36.3983 145.54 36.8791 145.286 37.2184C145.06 37.5295 144.706 37.8264 144.225 38.1092C143.547 38.4768 142.642 38.8162 141.511 39.1273C140.379 39.4383 139.107 39.5939 137.693 39.5939ZM137.693 36.7942C138.881 36.7942 139.856 36.6811 140.62 36.4549C141.412 36.2004 141.977 35.96 142.317 35.7338V29.5831L137.057 30.1345C135.586 30.2476 134.497 30.5728 133.79 31.1101C133.083 31.6474 132.73 32.4251 132.73 33.4432C132.73 34.4895 133.14 35.3096 133.96 35.9034C134.809 36.4973 136.053 36.7942 137.693 36.7942ZM155.255 23.0506V29.7527H151.862V23.3051C151.862 22.6547 151.975 22.1457 152.201 21.778C152.456 21.3821 152.866 21.0004 153.431 20.6327C154.167 20.152 155.17 19.742 156.443 19.4026C157.716 19.035 159.13 18.8512 160.685 18.8512C162.947 18.8512 164.078 19.4167 164.078 20.5479C164.078 20.8307 164.036 21.0993 163.951 21.3539C163.866 21.5801 163.753 21.778 163.612 21.9477C163.329 21.8912 162.961 21.8346 162.509 21.778C162.056 21.7215 161.604 21.6932 161.151 21.6932C159.851 21.6932 158.705 21.8346 157.716 22.1174C156.726 22.3719 155.906 22.683 155.255 23.0506ZM151.862 27.8015L155.255 28.3105V38.9152C155.114 38.9717 154.902 39.0283 154.619 39.0848C154.336 39.1697 154.025 39.2121 153.686 39.2121C153.092 39.2121 152.639 39.099 152.328 38.8727C152.017 38.6182 151.862 38.2223 151.862 37.685V27.8015ZM168.101 27.8015H171.495V33.6553C171.495 34.7864 171.82 35.5924 172.47 36.0731C173.121 36.5256 174.011 36.7518 175.143 36.7518C175.623 36.7518 176.161 36.667 176.755 36.4973C177.348 36.3276 177.843 36.1297 178.239 35.9034C178.409 36.0731 178.564 36.2852 178.706 36.5397C178.847 36.7942 178.918 37.0912 178.918 37.4305C178.918 38.0527 178.55 38.5617 177.815 38.9576C177.08 39.3535 176.062 39.5514 174.761 39.5514C172.781 39.5514 171.169 39.1131 169.925 38.2365C168.709 37.3598 168.101 35.9034 168.101 33.8673V27.8015ZM169.84 22.6264V19.8268H178.451C178.536 19.9399 178.621 20.1237 178.706 20.3782C178.791 20.6327 178.833 20.9014 178.833 21.1842C178.833 21.6367 178.72 21.9901 178.494 22.2447C178.267 22.4992 177.956 22.6264 177.561 22.6264H169.84ZM171.495 29.074H168.101V13.7185C168.243 13.662 168.455 13.6054 168.737 13.5488C169.049 13.464 169.374 13.4216 169.713 13.4216C170.307 13.4216 170.745 13.5488 171.028 13.8033C171.339 14.0296 171.495 14.4113 171.495 14.9486V29.074ZM198.476 24.1959V26.9955H186.811V24.1959H198.476ZM193.598 26.9955L194.955 24.8746C196.878 24.8746 198.476 25.1998 199.748 25.8502C201.021 26.4724 201.968 27.3066 202.59 28.3529C203.241 29.3993 203.566 30.5728 203.566 31.8737C203.566 34.4471 202.633 36.3559 200.766 37.6002C198.928 38.8445 196.298 39.4666 192.877 39.4666C192.113 39.4666 191.35 39.4383 190.586 39.3818C189.822 39.3535 189.073 39.2828 188.338 39.1697C187.603 39.0566 186.896 38.9152 186.217 38.7455C185.029 38.4061 184.435 37.7557 184.435 36.7942V15.0759C184.435 14.6234 184.548 14.27 184.775 14.0154C185.029 13.7609 185.383 13.5771 185.835 13.464C186.797 13.1812 187.815 12.9974 188.889 12.9126C189.992 12.7994 191.166 12.7429 192.41 12.7429C195.606 12.7429 198.094 13.3226 199.876 14.482C201.657 15.6132 202.548 17.3524 202.548 19.6995C202.548 20.8873 202.251 21.9901 201.657 23.0082C201.092 23.998 200.158 24.8039 198.858 25.426C197.585 26.0199 195.874 26.3168 193.725 26.3168L193.343 24.1959C195.21 24.1959 196.624 23.8141 197.585 23.0506C198.547 22.2588 199.027 21.17 199.027 19.7844C199.027 18.3704 198.462 17.3241 197.331 16.6454C196.228 15.9384 194.587 15.5849 192.41 15.5849C191.449 15.5849 190.6 15.6273 189.865 15.7122C189.13 15.7687 188.451 15.8536 187.829 15.9667V36.158C188.507 36.2993 189.285 36.4125 190.162 36.4973C191.067 36.5821 191.972 36.6246 192.877 36.6246C195.224 36.6246 197.005 36.2287 198.221 35.4368C199.437 34.645 200.045 33.429 200.045 31.7888C200.045 30.3183 199.494 29.1589 198.391 28.3105C197.316 27.4339 195.719 26.9955 193.598 26.9955ZM219.797 39.5514C217.676 39.5514 215.866 39.1697 214.367 38.4061C212.868 37.6143 211.723 36.5114 210.931 35.0975C210.168 33.6553 209.786 31.9868 209.786 30.0921V26.6138H213.222V29.7952C213.222 32.0575 213.844 33.7684 215.088 34.9278C216.361 36.059 217.93 36.6246 219.797 36.6246C221.663 36.6246 223.219 36.059 224.463 34.9278C225.735 33.7684 226.372 32.0575 226.372 29.7952V26.6138H229.85V30.0921C229.85 31.9868 229.454 33.6553 228.662 35.0975C227.899 36.5114 226.768 37.6143 225.269 38.4061C223.77 39.1697 221.946 39.5514 219.797 39.5514ZM213.222 28.3529H209.786V13.2943C209.927 13.2378 210.14 13.1812 210.422 13.1246C210.733 13.0398 211.059 12.9974 211.398 12.9974C212.02 12.9974 212.473 13.1246 212.755 13.3792C213.066 13.6054 213.222 14.0013 213.222 14.5669V28.3529ZM229.85 28.3529H226.372V13.2943C226.513 13.2378 226.725 13.1812 227.008 13.1246C227.319 13.0398 227.644 12.9974 227.984 12.9974C228.606 12.9974 229.072 13.1246 229.383 13.3792C229.695 13.6054 229.85 14.0013 229.85 14.5669V28.3529ZM237.418 23.602H240.854V38.9152C240.713 38.9717 240.501 39.0283 240.218 39.0848C239.935 39.1697 239.624 39.2121 239.285 39.2121C238.662 39.2121 238.196 39.0848 237.885 38.8303C237.574 38.5758 237.418 38.1799 237.418 37.6426V23.602ZM240.854 26.4441H237.418V13.2943C237.56 13.2378 237.772 13.1812 238.054 13.1246C238.365 13.0398 238.691 12.9974 239.03 12.9974C239.652 12.9974 240.105 13.1246 240.387 13.3792C240.699 13.6054 240.854 14.0013 240.854 14.5669V26.4441ZM248.477 23.9414H251.956V38.6607L250.344 39C249.807 39 249.354 38.8303 248.986 38.491C248.647 38.1233 248.477 37.6709 248.477 37.1336V23.9414ZM250.344 39V36.0307H264.13C264.271 36.1438 264.384 36.3276 264.469 36.5821C264.554 36.8367 264.597 37.1194 264.597 37.4305C264.597 37.9113 264.469 38.293 264.215 38.5758C263.96 38.8586 263.621 39 263.197 39H250.344ZM251.956 26.4865H248.477V13.2943C248.619 13.2378 248.831 13.1812 249.114 13.1246C249.425 13.0398 249.75 12.9974 250.089 12.9974C250.712 12.9974 251.178 13.1246 251.489 13.3792C251.8 13.6054 251.956 14.0013 251.956 14.5669V26.4865ZM287.799 25.8078C287.799 23.3758 287.318 21.4246 286.356 19.954C285.423 18.4553 284.165 17.3665 282.581 16.6878C281.026 15.9808 279.287 15.6273 277.364 15.6273C276.487 15.6273 275.709 15.6556 275.031 15.7122C274.352 15.7687 273.73 15.8536 273.164 15.9667V36.158C273.843 36.3276 274.564 36.4407 275.327 36.4973C276.119 36.5539 276.925 36.5821 277.745 36.5821C281.054 36.5821 283.557 35.6772 285.253 33.8673C286.95 32.0292 287.799 29.3427 287.799 25.8078ZM291.319 25.8078C291.319 28.8902 290.754 31.4495 289.623 33.4856C288.52 35.4934 286.95 36.9922 284.914 37.982C282.906 38.9717 280.531 39.4666 277.788 39.4666C276.911 39.4666 275.893 39.4242 274.734 39.3393C273.602 39.2828 272.528 39.099 271.51 38.7879C270.322 38.4203 269.728 37.7699 269.728 36.8367V15.0335C269.728 14.581 269.841 14.2417 270.068 14.0154C270.322 13.7609 270.676 13.563 271.128 13.4216C272.005 13.1388 272.994 12.955 274.097 12.8701C275.2 12.7853 276.303 12.7429 277.406 12.7429C280.177 12.7429 282.595 13.2378 284.66 14.2275C286.752 15.189 288.378 16.6313 289.538 18.5542C290.725 20.4772 291.319 22.8951 291.319 25.8078Z" fill="#27348B"/>
<defs>
<clipPath id="clip0_1300_5048">
<rect width="60" height="55" fill="white" transform="translate(0.197754)"/>
</clipPath>
</defs>
</svg>
