<svg width="28" height="28" viewBox="0 0 28 28" fill="none" xmlns="http://www.w3.org/2000/svg">
<path d="M15.3333 8C15.3333 7.26362 14.7364 6.66667 14 6.66667C13.2636 6.66667 12.6667 7.26362 12.6667 8L15.3333 8ZM12.6667 20C12.6667 20.7364 13.2636 21.3333 14 21.3333C14.7364 21.3333 15.3333 20.7364 15.3333 20H12.6667ZM20 15.3333C20.7364 15.3333 21.3333 14.7364 21.3333 14C21.3333 13.2636 20.7364 12.6667 20 12.6667V15.3333ZM8 12.6667C7.26362 12.6667 6.66667 13.2636 6.66667 14C6.66667 14.7364 7.26362 15.3333 8 15.3333V12.6667ZM24.6667 14C24.6667 19.891 19.891 24.6667 14 24.6667V27.3333C21.3638 27.3333 27.3333 21.3638 27.3333 14H24.6667ZM14 24.6667C8.10896 24.6667 3.33333 19.891 3.33333 14H0.666667C0.666667 21.3638 6.6362 27.3333 14 27.3333V24.6667ZM3.33333 14C3.33333 8.10896 8.10896 3.33333 14 3.33333V0.666667C6.6362 0.666667 0.666667 6.6362 0.666667 14H3.33333ZM14 3.33333C19.891 3.33333 24.6667 8.10896 24.6667 14H27.3333C27.3333 6.6362 21.3638 0.666667 14 0.666667V3.33333ZM12.6667 8L12.6667 14L15.3333 14L15.3333 8L12.6667 8ZM12.6667 14V20H15.3333V14H12.6667ZM20 12.6667H14V15.3333H20V12.6667ZM14 12.6667H8V15.3333H14V12.6667Z" fill="#1374CF"/>
</svg>
