<svg width="22" height="22" viewBox="0 0 22 22" xmlns="http://www.w3.org/2000/svg">
<path d="M7.06454 15.6932C7.33925 15.8877 7.6675 15.9923 8.00409 15.9925C8.32033 15.9924 8.62968 15.9001 8.89431 15.7269C9.15893 15.5538 9.36736 15.3073 9.49409 15.0175L10.2631 12.6775C10.4507 12.1146 10.7668 11.603 11.1863 11.1834C11.6058 10.7637 12.1172 10.4474 12.6801 10.2595L14.9181 9.53252C15.2358 9.42119 15.5107 9.21311 15.7041 8.93752C15.8528 8.72811 15.9496 8.48638 15.9865 8.23224C16.0235 7.97809 15.9995 7.71881 15.9166 7.47574C15.8337 7.23267 15.6942 7.01278 15.5096 6.83419C15.3251 6.6556 15.1007 6.52341 14.8551 6.44852L12.6401 5.72852C12.0769 5.54178 11.565 5.2264 11.1449 4.80738C10.7249 4.38835 10.4082 3.87722 10.2201 3.31452L9.49309 1.07752C9.38119 0.760632 9.17363 0.486329 8.89909 0.292515C8.62282 0.102015 8.29517 0 7.95959 0C7.62401 0 7.29635 0.102015 7.02009 0.292515C6.74106 0.489583 6.53115 0.769474 6.42009 1.09251L5.68309 3.35752C5.4954 3.9055 5.18546 4.40358 4.77675 4.81402C4.36804 5.22447 3.87127 5.53651 3.32409 5.72652L1.08409 6.45352C0.765345 6.56619 0.489648 6.77541 0.295355 7.05207C0.101061 7.32873 -0.00216591 7.65907 3.44589e-05 7.99714C0.00223459 8.3352 0.109753 8.66417 0.307631 8.93828C0.505509 9.21239 0.783905 9.418 1.10409 9.52652L3.32009 10.2455C3.88501 10.4344 4.39844 10.7517 4.82009 11.1725C4.93305 11.2856 5.0386 11.4058 5.13609 11.5325C5.40193 11.875 5.60692 12.2606 5.74209 12.6725L6.47009 14.9065C6.58214 15.2239 6.78983 15.4988 7.06454 15.6932ZM3.79109 8.82052L1.57009 8.09952C1.57009 8.09952 1.48609 8.06252 1.48609 7.99252C1.48882 7.96768 1.49801 7.94399 1.51275 7.92381C1.52749 7.90364 1.54726 7.88768 1.57009 7.87752L3.80409 7.15252C4.57996 6.88302 5.2832 6.43815 5.85909 5.85252C6.43216 5.26534 6.86466 4.5559 7.12409 3.77752L7.84509 1.55852C7.84509 1.55852 7.88809 1.47451 7.95909 1.47451C8.03009 1.47451 8.07209 1.55852 8.07209 1.55852L8.79509 3.78152C9.0568 4.56757 9.49835 5.2817 10.0846 5.86708C10.6709 6.45247 11.3856 6.89296 12.1721 7.15352L14.4411 7.88852C14.4627 7.8981 14.4814 7.91323 14.4953 7.93237C14.5091 7.95152 14.5177 7.97399 14.5201 7.99752C14.5171 8.02201 14.5079 8.04534 14.4934 8.06528C14.4789 8.08523 14.4595 8.10115 14.4371 8.11152L12.2121 8.83352C11.4258 9.09439 10.7114 9.53527 10.1256 10.121C9.53984 10.7068 9.09896 11.4213 8.83809 12.2075L8.12309 14.4075C8.11891 14.4345 8.10481 14.459 8.08355 14.4762C8.06229 14.4934 8.03539 14.5021 8.00809 14.5005C7.90409 14.5005 7.89009 14.4255 7.89009 14.4255L7.16709 12.2055C6.97795 11.631 6.69218 11.0929 6.32209 10.6145C6.18606 10.4391 6.03945 10.2721 5.88309 10.1145C5.29531 9.52707 4.57918 9.08411 3.79109 8.82052ZM16.8082 21.7737C17.0117 21.917 17.2548 21.9935 17.5038 21.9925C17.7512 21.9936 17.9929 21.9182 18.1958 21.7765C18.4041 21.6287 18.5602 21.4186 18.6418 21.1765L19.0138 20.0335C19.0925 19.7962 19.2253 19.5805 19.4018 19.4035C19.5784 19.2264 19.7937 19.0929 20.0308 19.0135L21.1968 18.6355C21.4323 18.5519 21.6363 18.3975 21.7808 18.1935C21.9257 17.9902 22.0036 17.7467 22.0036 17.497C22.0036 17.2473 21.9257 17.0039 21.7808 16.8005C21.6271 16.5883 21.4095 16.4309 21.1598 16.3515L20.0158 15.9805C19.7785 15.9019 19.5627 15.769 19.3857 15.5925C19.2087 15.4159 19.0752 15.2006 18.9958 14.9635L18.6168 13.8005C18.535 13.5628 18.3807 13.3568 18.1756 13.2114C17.9705 13.0661 17.7249 12.9889 17.4735 12.9907C17.2221 12.9925 16.9777 13.0731 16.7746 13.2213C16.5715 13.3695 16.4201 13.5777 16.3418 13.8165L15.9678 14.9625C15.8912 15.1968 15.7618 15.4103 15.5897 15.5866C15.4175 15.763 15.2071 15.8974 14.9748 15.9795L13.8088 16.3575C13.5732 16.4412 13.3692 16.5955 13.2248 16.7995C13.0798 17.0029 13.002 17.2463 13.002 17.496C13.002 17.7457 13.0798 17.9892 13.2248 18.1925C13.3734 18.3992 13.5833 18.5539 13.8248 18.6345L14.9688 19.0065C15.2071 19.0854 15.4235 19.219 15.6009 19.3967C15.7782 19.5743 15.9114 19.7911 15.9898 20.0295L16.3678 21.1925C16.4508 21.4272 16.6047 21.6303 16.8082 21.7737ZM15.4368 17.5805L15.1678 17.4925L15.4498 17.3965C15.9038 17.2393 16.3153 16.9794 16.6523 16.637C16.9894 16.2946 17.2428 15.879 17.3928 15.4225L17.4808 15.1515L17.5698 15.4245C17.7224 15.8847 17.9803 16.3028 18.323 16.6457C18.6657 16.9886 19.0837 17.2467 19.5438 17.3995L19.8368 17.4995L19.5658 17.5865C19.1058 17.7402 18.688 17.9988 18.3454 18.342C18.0027 18.6851 17.7447 19.1034 17.5918 19.5635L17.5038 19.8335L17.4158 19.5615C17.2634 19.0998 17.0051 18.6801 16.6614 18.3361C16.3178 17.9921 15.8984 17.7334 15.4368 17.5805Z"/>
</svg>
