<svg width="13" height="13" viewBox="0 0 13 13" fill="none" xmlns="http://www.w3.org/2000/svg">
<path d="M11.375 0C11.607 0.000243206 11.8291 0.0927945 11.9932 0.256836C12.1572 0.420878 12.2498 0.64301 12.25 0.875V11.375C12.2498 11.607 12.1572 11.8291 11.9932 11.9932C11.8291 12.1572 11.607 12.2498 11.375 12.25H0.875C0.64301 12.2498 0.420878 12.1572 0.256836 11.9932C0.0927945 11.8291 0.000243206 11.607 0 11.375V0.875C0.000243222 0.64301 0.0927943 0.420878 0.256836 0.256836C0.420878 0.0927943 0.64301 0.000243222 0.875 0H11.375ZM0.875 11.375H11.375V0.875H0.875V11.375Z" fill="#0F6CBD"/>
<path d="M3.9375 2.1875H8.3125C8.55412 2.1875 8.75 2.38338 8.75 2.625V9.625C8.75 9.86662 8.55412 10.0625 8.3125 10.0625H3.9375C3.69588 10.0625 3.5 9.86662 3.5 9.625V2.625C3.5 2.38338 3.69588 2.1875 3.9375 2.1875Z" stroke="#0F6CBD" stroke-width="0.875"/>
<circle cx="4.8125" cy="5.6875" r="0.4375" fill="#0F6CBD"/>
</svg>
