<svg width="11" height="11" viewBox="0 0 11 11" xmlns="http://www.w3.org/2000/svg">
<path d="M9.75 0C9.94885 0.000208463 10.1397 0.0791194 10.2803 0.219727C10.4209 0.360334 10.4998 0.551152 10.5 0.75V9.75C10.4998 9.94885 10.4209 10.1397 10.2803 10.2803C10.1397 10.4209 9.94885 10.4998 9.75 10.5H0.75C0.551152 10.4998 0.360334 10.4209 0.219727 10.2803C0.0791194 10.1397 0.000208463 9.94885 0 9.75V0.75C0.000208463 0.551152 0.0791194 0.360334 0.219727 0.219727C0.360334 0.0791194 0.551152 0.000208463 0.75 0H9.75ZM0.75 9.75H9.75V0.75H0.75V9.75Z" />
<path d="M3.375 1.875H7.125C7.33211 1.875 7.5 2.04289 7.5 2.25V8.25C7.5 8.45711 7.33211 8.625 7.125 8.625H3.375C3.16789 8.625 3 8.45711 3 8.25V2.25C3 2.04289 3.16789 1.875 3.375 1.875Z" stroke-width="0.75"/>
<circle cx="4.125" cy="4.875" r="0.375" />
</svg>
