<svg width="10" height="11" xmlns="http://www.w3.org/2000/svg">
<path d="M6.75 4.5C8.4 4.5 9.75 5.85 9.75 7.5C9.75 9.15 8.4 10.5 6.75 10.5C5.1 10.5 3.75 9.15 3.75 7.5C3.75 5.85 5.1 4.5 6.75 4.5ZM3 0V0.75H6V0H6.75V0.75H8.25C8.6625 0.75 9 1.0875 9 1.5V3.75H8.25V1.5H6.75V2.25H6V1.5H3V2.25H2.25V1.5H0.75V9H3V9.75H0.75C0.3375 9.75 0 9.4125 0 9V1.5C0 1.0875 0.3375 0.75 0.75 0.75H2.25V0H3ZM6.75 5.25C5.5125 5.25 4.5 6.2625 4.5 7.5C4.5 8.7375 5.5125 9.75 6.75 9.75C7.9875 9.75 9 8.7375 9 7.5C9 6.2625 7.9875 5.25 6.75 5.25ZM7.125 7.125H8.25V7.875H7.125V9H6.375V7.875H5.25V7.125H6.375V6H7.125V7.125Z" />
</svg>
