<svg width="16" height="15" viewBox="0 0 16 15" xmlns="http://www.w3.org/2000/svg">
<path d="M0 1.75C0 0.783502 0.783502 0 1.75 0H10.208C11.1745 0 11.958 0.783502 11.958 1.75V3.00006L12.8399 2.99994C13.4081 2.99986 13.9276 3.32087 14.1818 3.82912L15.7998 7.0651C15.9039 7.27338 15.9581 7.50305 15.9581 7.73592V11.4999C15.9581 12.3283 15.2865 12.9999 14.4581 12.9999H12.908C12.6765 14.141 11.6675 15 10.458 15C9.24853 15 8.23965 14.1411 8.00802 13H6.908C6.67636 14.1411 5.66749 15 4.45801 15C3.24853 15 2.23965 14.1411 2.00802 13H1.75C0.783502 13 0 12.2165 0 11.25V1.75ZM8.00802 12C8.23965 10.8589 9.24853 10 10.458 10C10.6292 10 10.7965 10.0172 10.958 10.05V1.75C10.958 1.33579 10.6222 1 10.208 1H1.75C1.33579 1 1 1.33579 1 1.75V11.25C1 11.6642 1.33579 12 1.75 12H2.00802C2.23965 10.8589 3.24853 10 4.45801 10C5.66749 10 6.67636 10.8589 6.908 12H8.00802ZM11.958 10.4998C12.4381 10.8604 12.7841 11.3898 12.908 11.9999H14.4581C14.7343 11.9999 14.9581 11.776 14.9581 11.4999V7.99994H11.958V10.4998ZM11.958 6.99994H14.6491L13.2873 4.27633C13.2026 4.10692 13.0295 3.99991 12.84 3.99994L11.958 4.00006V6.99994ZM4.45801 11C3.62958 11 2.95801 11.6716 2.95801 12.5C2.95801 13.3284 3.62958 14 4.45801 14C5.28644 14 5.95801 13.3284 5.95801 12.5C5.95801 11.6716 5.28644 11 4.45801 11ZM8.95801 12.5C8.95801 13.3284 9.62958 14 10.458 14C11.2864 14 11.958 13.3284 11.958 12.5C11.958 11.6716 11.2864 11 10.458 11C9.62958 11 8.95801 11.6716 8.95801 12.5Z"/>
</svg>
