<svg width="20" height="19" viewBox="0 0 20 19" xmlns="http://www.w3.org/2000/svg">
<path d="M0 2.25C0 1.00736 1.00736 0 2.25 0H12.25C13.4926 0 14.5 1.00736 14.5 2.25V3H16.0508C16.9203 3 17.7119 3.501 18.0842 4.28681L19.7834 7.8741C19.926 8.17518 20 8.50416 20 8.8373V14.25C20 15.4926 18.9926 16.5 17.75 16.5H15.9585C15.7205 17.9189 14.4865 19 13 19C11.5135 19 10.2795 17.9189 10.0415 16.5H7.95852C7.72048 17.9189 6.4865 19 5 19C3.51012 19 2.27391 17.9139 2.03987 16.4903C0.895757 16.3844 0 15.4218 0 14.25V2.25ZM18.5 12.5001H17.25C16.8358 12.5001 16.5 12.8358 16.5 13.2501C16.5 13.6643 16.8358 14.0001 17.25 14.0001H18.5V12.5001ZM18.1833 8L16.7286 4.92894C16.6045 4.667 16.3406 4.5 16.0508 4.5H14.5V8L18.1833 8ZM5 17.5C5.82843 17.5 6.5 16.8284 6.5 16C6.5 15.1716 5.82843 14.5 5 14.5C4.17157 14.5 3.5 15.1716 3.5 16C3.5 16.8284 4.17157 17.5 5 17.5ZM14.5 16C14.5 15.1716 13.8284 14.5 13 14.5C12.1716 14.5 11.5 15.1716 11.5 16C11.5 16.8284 12.1716 17.5 13 17.5C13.8284 17.5 14.5 16.8284 14.5 16Z"/>
</svg>
