<svg width="12" height="12" viewBox="0 0 12 12" xmlns="http://www.w3.org/2000/svg">
<path d="M5.6 0C8.69279 0 11.2 2.50721 11.2 5.6C11.2 8.69279 8.69279 11.2 5.6 11.2C2.50721 11.2 0 8.69279 0 5.6C0 2.50721 2.50721 0 5.6 0ZM5.6 0.7C2.8938 0.7 0.7 2.8938 0.7 5.6C0.7 8.3062 2.8938 10.5 5.6 10.5C8.3062 10.5 10.5 8.3062 10.5 5.6C10.5 2.8938 8.3062 0.7 5.6 0.7ZM7.95089 3.95251C8.07239 4.07401 8.08589 4.26261 7.99139 4.39901L7.95089 4.44749L5.14749 7.2509C5.02599 7.37239 4.83739 7.38589 4.70099 7.29139L4.65251 7.2509L3.25251 5.85089C3.11583 5.71421 3.11583 5.4926 3.25251 5.35592C3.37401 5.23442 3.56261 5.22092 3.69901 5.31542L3.74749 5.35592L4.9 6.5086L7.45592 3.95251C7.5926 3.81583 7.81421 3.81583 7.95089 3.95251Z" />
</svg>
