<svg width="9" height="9" viewBox="0 0 9 9" xmlns="http://www.w3.org/2000/svg">
<path d="M4.16667 0C6.46785 0 8.33333 1.86548 8.33333 4.16667C8.33333 6.46785 6.46785 8.33333 4.16667 8.33333C1.86548 8.33333 0 6.46785 0 4.16667C0 1.86548 1.86548 0 4.16667 0ZM3.75 2.08333C3.51988 2.08333 3.33333 2.26988 3.33333 2.5V4.58333C3.33333 4.81345 3.51988 5 3.75 5H5.41667C5.64679 5 5.83333 4.81345 5.83333 4.58333C5.83333 4.35321 5.64679 4.16667 5.41667 4.16667H4.16667V2.5C4.16667 2.26988 3.98012 2.08333 3.75 2.08333Z"/>
</svg>
