<svg width="28" height="28" viewBox="0 0 28 28" fill="none" xmlns="http://www.w3.org/2000/svg">
<path d="M19.1854 10.7002C19.7061 10.1795 19.7061 9.33525 19.1855 8.81455C18.6648 8.29385 17.8205 8.29385 17.2998 8.81455L19.1854 10.7002ZM8.81455 17.2998C8.29385 17.8205 8.29385 18.6648 8.81455 19.1855C9.33525 19.7061 10.1795 19.7061 10.7002 19.1855L8.81455 17.2998ZM17.2998 19.1855C17.8205 19.7061 18.6648 19.7061 19.1855 19.1855C19.7061 18.6648 19.7061 17.8205 19.1855 17.2998L17.2998 19.1855ZM10.7002 8.81455C10.1795 8.29385 9.33525 8.29385 8.81455 8.81455C8.29385 9.33525 8.29385 10.1795 8.81455 10.7002L10.7002 8.81455ZM24.6667 14C24.6667 19.891 19.891 24.6667 14 24.6667V27.3333C21.3638 27.3333 27.3333 21.3638 27.3333 14H24.6667ZM14 24.6667C8.10896 24.6667 3.33333 19.891 3.33333 14H0.666667C0.666667 21.3638 6.6362 27.3333 14 27.3333V24.6667ZM3.33333 14C3.33333 8.10896 8.10896 3.33333 14 3.33333V0.666667C6.6362 0.666667 0.666667 6.6362 0.666667 14H3.33333ZM14 3.33333C19.891 3.33333 24.6667 8.10896 24.6667 14H27.3333C27.3333 6.6362 21.3638 0.666667 14 0.666667V3.33333ZM17.2998 8.81455L13.0572 13.0572L14.9428 14.9428L19.1854 10.7002L17.2998 8.81455ZM13.0572 13.0572L8.81455 17.2998L10.7002 19.1855L14.9428 14.9428L13.0572 13.0572ZM19.1855 17.2998L14.9428 13.0572L13.0572 14.9428L17.2998 19.1855L19.1855 17.2998ZM14.9428 13.0572L10.7002 8.81455L8.81455 10.7002L13.0572 14.9428L14.9428 13.0572Z" fill="#FB4F57"/>
</svg>
