<svg width="19" height="21" viewBox="0 0 19 21" fill="none" xmlns="http://www.w3.org/2000/svg">
<path d="M14.1133 15.25V14H11.6513L11.7493 14.1959C11.9142 14.5257 12 14.8894 12 15.2581V15.5H13.8633C14.0014 15.5 14.1133 15.3881 14.1133 15.25ZM14.1133 12.5H10.9013L10.7244 12.1462C10.5737 11.8447 10.3639 11.5848 10.1133 11.3777V11H13.8633C14.0014 11 14.1133 11.1119 14.1133 11.25V12.5ZM12 18.25V17H13.8633C14.8298 17 15.6133 16.2165 15.6133 15.25V11.25C15.6133 10.2835 14.8298 9.5 13.8633 9.5H8.18062C7.75025 9.18558 7.21979 9 6.64598 9H2.61328V2C2.61328 0.895431 3.50871 0 4.61328 0H10.6133V6C10.6133 7.10457 11.5087 8 12.6133 8H18.6133V18C18.6133 19.1046 17.7178 20 16.6133 20H11.2307C11.7036 19.5659 12 18.9426 12 18.25ZM12.1133 6V0.5L18.1133 6.5H12.6133C12.3371 6.5 12.1133 6.27614 12.1133 6ZM0 11.6042C0 10.7182 0.71821 10 1.60417 10H6.64598C7.53194 10 8.25015 10.7182 8.25015 11.6042V11.8333H8.60014C9.12095 11.8333 9.59706 12.1276 9.82997 12.5934L10.8548 14.6431C10.9503 14.8341 11 15.0446 11 15.2581V18.25C11 19.0094 10.3844 19.625 9.625 19.625H9.10891C8.90539 20.4157 8.18759 21 7.33333 21C6.47907 21 5.76128 20.4157 5.55776 19.625H4.52558C4.32206 20.4157 3.60426 21 2.75 21C1.84544 21 1.09389 20.3449 0.9439 19.4833C0.387292 19.2316 0 18.6714 0 18.0208V11.6042ZM8.25015 12.75V14.5833H9.80007L9.01008 13.0034C8.93244 12.8481 8.77374 12.75 8.60014 12.75H8.25015ZM2.75 18.25C2.24374 18.25 1.83333 18.6604 1.83333 19.1667C1.83333 19.6729 2.24374 20.0833 2.75 20.0833C3.25626 20.0833 3.66667 19.6729 3.66667 19.1667C3.66667 18.6604 3.25626 18.25 2.75 18.25ZM6.41667 19.1667C6.41667 19.6729 6.82707 20.0833 7.33333 20.0833C7.83959 20.0833 8.25 19.6729 8.25 19.1667C8.25 18.6604 7.83959 18.25 7.33333 18.25C6.82707 18.25 6.41667 18.6604 6.41667 19.1667Z" fill="#0060FE"/>
</svg>
