<svg width="12" height="13" xmlns="http://www.w3.org/2000/svg">
<path d="M7.875 0C8.10699 0.000243206 8.32912 0.0927943 8.49316 0.256836C8.65721 0.420878 8.74976 0.64301 8.75 0.875V5.25H7.875V0.875H0.875V11.375H3.5V12.25H0.875C0.64301 12.2498 0.420878 12.1572 0.256836 11.9932C0.0927943 11.8291 0.000243206 11.607 0 11.375V0.875C0.000243206 0.64301 0.0927943 0.420878 0.256836 0.256836C0.420878 0.0927943 0.64301 0.000243206 0.875 0H7.875ZM9.625 6.125C9.68231 6.125 9.73903 6.13631 9.79199 6.1582C9.84506 6.1802 9.89397 6.21229 9.93457 6.25293L11.2471 7.56543C11.2877 7.60604 11.3198 7.65493 11.3418 7.70801C11.3637 7.76097 11.375 7.81769 11.375 7.875C11.375 7.9323 11.3637 7.98904 11.3418 8.04199C11.3198 8.09506 11.2877 8.14397 11.2471 8.18457L7.18164 12.25H5.25V10.3184L9.31543 6.25293C9.35603 6.21229 9.40494 6.1802 9.45801 6.1582C9.51097 6.13631 9.56769 6.125 9.625 6.125ZM6.125 10.6816V11.375H6.81836L9.00586 9.1875L8.3125 8.49414L6.125 10.6816ZM3.5 10.5H1.75V9.625H3.5V10.5ZM8.93164 7.875L9.625 8.56836L10.3184 7.875L9.625 7.18164L8.93164 7.875ZM4.375 6.125H1.75V5.25H4.375V6.125ZM7 4.375H1.75V3.5H7V4.375ZM7 2.625H1.75V1.75H7V2.625Z" />
</svg>
