<svg width="17" height="21" viewBox="0 0 17 21" xmlns="http://www.w3.org/2000/svg">
<path d="M8.5 6.25V0.25H2.5C1.39543 0.25 0.5 1.14543 0.5 2.25V18.25C0.5 19.3546 1.39543 20.25 2.5 20.25H14.5C15.6046 20.25 16.5 19.3546 16.5 18.25V8.25H10.5C9.39543 8.25 8.5 7.35457 8.5 6.25ZM8.5 13.25C8.91421 13.25 9.25 13.5858 9.25 14V16.5C9.25 16.9142 8.91421 17.25 8.5 17.25C8.08579 17.25 7.75 16.9142 7.75 16.5V14C7.75 13.5858 8.08579 13.25 8.5 13.25ZM5.25 9.25C5.66421 9.25 6 9.58579 6 10V16.5C6 16.9142 5.66421 17.25 5.25 17.25C4.83579 17.25 4.5 16.9142 4.5 16.5V10C4.5 9.58579 4.83579 9.25 5.25 9.25ZM11.75 11.25C12.1642 11.25 12.5 11.5858 12.5 12V16.5C12.5 16.9142 12.1642 17.25 11.75 17.25C11.3358 17.25 11 16.9142 11 16.5V12C11 11.5858 11.3358 11.25 11.75 11.25ZM10 6.25V0.75L16 6.75H10.5C10.2239 6.75 10 6.52614 10 6.25Z"/>
</svg>
