<svg width="15" height="16" viewBox="0 0 15 16" xmlns="http://www.w3.org/2000/svg">
<path d="M6 4.5V0H1.5C0.671573 0 0 0.671573 0 1.5V14.5C0 15.3284 0.671573 16 1.5 16H10.5C11.3284 16 12 15.3284 12 14.5V12.0617L10.3326 13.7291C9.92286 14.1388 9.40947 14.4295 8.84732 14.5701L7.34941 14.9445C6.45189 15.1689 5.6092 14.7204 5.22218 14H2.5C2.22386 14 2 13.7761 2 13.5C2 13.2239 2.22386 13 2.5 13H5.00383C5.01113 12.8859 5.02893 12.7701 5.05813 12.6532L5.43261 11.1554C5.57315 10.5932 5.86381 10.0798 6.27356 9.67008L9.94363 6H7.5C6.67157 6 6 5.32843 6 4.5ZM11.3613 4.61131C11.2718 4.68169 11.1855 4.75813 11.103 4.84065L10.9436 5H7.5C7.22386 5 7 4.77614 7 4.5V0.25L11.3613 4.61131ZM6.97975 10.3772L11.8092 5.54776C12.5395 4.81741 13.7237 4.81741 14.454 5.54776C15.1843 6.27811 15.1843 7.46223 14.454 8.19258L9.62457 13.022C9.343 13.3036 8.99019 13.5033 8.60387 13.5999L7.10597 13.9744C6.45456 14.1372 5.86451 13.5472 6.02737 12.8958L6.40184 11.3979C6.49842 11.0116 6.69818 10.6588 6.97975 10.3772Z"/>
</svg>
