<svg width="18" height="20" viewBox="0 0 18 20" xmlns="http://www.w3.org/2000/svg">
<path d="M8 0V6C8 7.10457 8.89543 8 10 8H14.9209C14.324 8.21957 13.7756 8.55412 13.3621 8.97043L7.31144 15.0623C6.95976 15.4164 6.70857 15.8576 6.58362 16.3407L6.05878 18.3701C5.90491 18.9651 6.01683 19.5396 6.30075 20H1.5C0.671573 20 0 19.3284 0 18.5V1.5C0 0.671573 0.671573 0 1.5 0H8ZM9.5 0.5V6C9.5 6.27614 9.72386 6.5 10 6.5H15.5L9.5 0.5ZM8.19566 15.5719L14.0981 9.66946C14.9907 8.77685 16.4379 8.77685 17.3305 9.66946C18.2231 10.5621 18.2231 12.0093 17.3305 12.9019L11.4281 18.8043C11.084 19.1485 10.6528 19.3926 10.1806 19.5106L8.34992 19.9683C7.55378 20.1674 6.83264 19.4462 7.03168 18.6501L7.48935 16.8194C7.60739 16.3472 7.85153 15.916 8.19566 15.5719Z"/>
</svg>
