<svg width="14" height="14" viewBox="0 0 14 14" fill="none" xmlns="http://www.w3.org/2000/svg">
<path d="M1.5 7V1H9.52841L7.59313 3.70938C7.49038 3.85323 7.47265 4.03795 7.53994 4.1959C7.88851 4.10017 8.25092 4.03787 8.62351 4.01268L8.61445 4L10.9069 0.790619C11.1432 0.459685 10.9067 0 10.5 0H1C0.723858 0 0.5 0.223858 0.5 0.5V11.5C0.5 11.7761 0.723858 12 1 12C1.27614 12 1.5 11.7761 1.5 11.5V8H3.70703C3.80564 7.65136 3.93777 7.31679 4.09971 7H1.5Z" />
<path d="M13.5 9.5C13.5 11.9853 11.4853 14 9 14C6.51472 14 4.5 11.9853 4.5 9.5C4.5 7.01472 6.51472 5 9 5C11.4853 5 13.5 7.01472 13.5 9.5ZM9 7C8.72386 7 8.5 7.22386 8.5 7.5V9.5C8.5 9.77614 8.72386 10 9 10H10.5C10.7761 10 11 9.77614 11 9.5C11 9.22386 10.7761 9 10.5 9H9.5V7.5C9.5 7.22386 9.27614 7 9 7Z" />
</svg>
