<svg width="24" height="21" viewBox="0 0 24 21" fill="none" xmlns="http://www.w3.org/2000/svg">
<path d="M0 3.75C0 1.67893 1.67893 0 3.75 0H7.42157C8.15092 0 8.85039 0.289731 9.36612 0.805456L11.25 2.68934L8.30546 5.63388C8.07104 5.8683 7.75309 6 7.42157 6H0V3.75ZM0.00390625 7.5V17.2501C0.00390625 19.3211 1.68284 21.0001 3.75391 21.0001H20.2505C22.3216 21.0001 24.0005 19.3211 24.0005 17.2501V6.75C24.0005 4.67893 22.3216 3 20.2505 3H13.0607L9.36612 6.69454C8.85039 7.21027 8.15092 7.5 7.42157 7.5H0.00390625Z" fill="#0060FE"/>
</svg>
