<svg width="11" height="9" xmlns="http://www.w3.org/2000/svg">
<path d="M5.3746 0C5.26055 0 5.1584 0.0509115 5.08962 0.131247L5.05194 0.158417C3.92351 -0.173418 2.64327 0.0832255 1.74965 0.928348C0.957273 1.67772 0.654136 2.71457 0.840239 3.68391L0.82871 3.69466L0.32527 4.17077C-0.108424 4.58093 -0.108423 5.24592 0.32527 5.65608C0.582406 5.89926 0.934266 5.99826 1.26853 5.95308C1.31662 6.12793 1.41309 6.29334 1.55794 6.43032C1.75388 6.61563 2.00482 6.71721 2.26107 6.73508C2.27992 6.97747 2.38734 7.21486 2.58333 7.4002C2.77931 7.58555 3.03033 7.68714 3.28663 7.70497C3.30546 7.94741 3.41289 8.18484 3.6089 8.37022C4.00729 8.74698 4.63305 8.77766 5.06846 8.46224L5.31577 8.69613C5.75159 9.1083 6.45819 9.1083 6.894 8.69613C7.08929 8.51144 7.19704 8.27547 7.21732 8.03414C7.4719 8.01536 7.72092 7.91388 7.91572 7.72965C8.11108 7.5449 8.21842 7.3086 8.23785 7.06714C8.48939 7.04672 8.73495 6.94547 8.92755 6.76333C9.079 6.6201 9.17757 6.4458 9.22328 6.26213C9.55256 6.30188 9.89706 6.20217 10.15 5.96301C10.5836 5.55285 10.5836 4.88786 10.15 4.4777L9.70458 4.0565L9.78946 3.74206C9.98656 3.01189 9.88695 2.23891 9.5127 1.57699C8.96089 0.601034 7.89371 0.00251833 6.74418 0.00251817L5.98152 0.00251806C5.94717 0.000844896 5.91264 0 5.87794 0H5.3746ZM8.65365 4.09316L9.01845 4.45219C9.04136 4.47474 9.06675 4.49396 9.09389 4.50963L9.60504 4.99304C9.73779 5.11858 9.73779 5.32213 9.60504 5.44767C9.47229 5.57321 9.25707 5.57321 9.12432 5.44767L8.26966 4.6394C8.11919 4.49709 7.87522 4.49709 7.72475 4.6394L7.71627 4.64742C7.5658 4.78972 7.5658 5.02045 7.71627 5.16276L8.38264 5.79296C8.5155 5.91861 8.5155 6.12234 8.38264 6.24799C8.2614 6.36264 8.07079 6.37282 7.93778 6.27788C7.7838 6.16798 7.56761 6.1827 7.43188 6.31233C7.29614 6.44197 7.28269 6.64656 7.4004 6.79109C7.50293 6.91698 7.49287 7.09888 7.37081 7.21431C7.24801 7.33045 7.05409 7.33935 6.9209 7.24052C6.76787 7.12697 6.54936 7.13909 6.41141 7.26877C6.27347 7.39845 6.25935 7.60502 6.37849 7.75042C6.48323 7.87824 6.47324 8.06339 6.34909 8.1808C6.21422 8.30835 5.99555 8.30835 5.86069 8.1808L5.62021 7.95337L5.68288 7.8941C6.11658 7.48394 6.11658 6.81895 5.68288 6.4088C5.4869 6.22345 5.23588 6.12186 4.97958 6.10403C4.96075 5.86159 4.85332 5.62416 4.65731 5.43878C4.46137 5.25347 4.21042 5.15189 3.95418 5.13402C3.93532 4.89163 3.8279 4.65424 3.63192 4.4689C3.37478 4.22572 3.02292 4.12672 2.68866 4.1719C2.64057 3.99705 2.5441 3.83164 2.39925 3.69466C2.17197 3.47971 1.87068 3.37741 1.57295 3.38775C1.4923 2.69488 1.73284 1.97492 2.29456 1.44369C2.82552 0.941545 3.53477 0.710797 4.2296 0.751441L3.40847 1.34359C2.87468 1.72851 2.77517 2.46479 3.18762 2.9776C3.59041 3.47842 4.33184 3.57863 4.85313 3.20271L5.86261 2.47474H6.94236L8.65365 4.09316ZM3.84715 1.95191L5.51384 0.75H5.87794C5.90277 0.75 5.9274 0.750666 5.95183 0.751978C5.95853 0.752338 5.96524 0.752518 5.97194 0.752518L6.74418 0.752518C7.63796 0.752518 8.44813 1.21798 8.85983 1.94612C9.12424 2.41376 9.20284 2.95196 9.08548 3.46586L7.42586 1.83247C7.35571 1.76344 7.26124 1.72474 7.16282 1.72474L5.7415 1.72474C5.66276 1.72474 5.58602 1.74953 5.52216 1.79558L4.41445 2.59439C4.2167 2.73699 3.92484 2.69754 3.77205 2.50756C3.6289 2.32958 3.66189 2.0855 3.84715 1.95191ZM4.65849 6.92296C4.79134 6.79859 5.00564 6.79898 5.13797 6.92413C5.27072 7.04968 5.27072 7.25322 5.13797 7.37876L4.63453 7.85488C4.50178 7.98042 4.28656 7.98042 4.15381 7.85488C4.02106 7.72934 4.02106 7.52579 4.15381 7.40025L4.65849 6.92296ZM4.11361 6.4076L3.60896 6.88487C3.47621 7.01041 3.26098 7.01041 3.12824 6.88487C2.99813 6.76182 2.99554 6.56384 3.12048 6.43781L3.12848 6.43032L3.63192 5.9542L3.63972 5.94675C3.77298 5.82862 3.9823 5.83108 4.1124 5.95412C4.24474 6.07928 4.24514 6.28196 4.11361 6.4076ZM3.08677 5.43878L2.58333 5.9149L2.57552 5.92235C2.44226 6.04048 2.23294 6.03802 2.10285 5.91498C1.9701 5.78944 1.9701 5.5859 2.10285 5.46035L2.60629 4.98424C2.73903 4.85869 2.95426 4.85869 3.08701 4.98424C3.21712 5.10729 3.2197 5.30527 3.09476 5.4313L3.08677 5.43878ZM1.85434 4.66462L1.3509 5.14074C1.21815 5.26629 1.00293 5.26629 0.870181 5.14074C0.737433 5.0152 0.737433 4.81165 0.87018 4.68611L1.37362 4.20999C1.50637 4.08445 1.72159 4.08445 1.85434 4.20999C1.98709 4.33554 1.98709 4.53908 1.85434 4.66462Z" />
</svg>
