<svg width="14" height="14" viewBox="0 0 14 14" xmlns="http://www.w3.org/2000/svg">
<path d="M6.33398 7.66659C6.33398 7.2984 6.63246 6.99992 7.00065 6.99992C7.36884 6.99992 7.66732 7.2984 7.66732 7.66659V9.66659C7.66732 10.0348 7.36884 10.3333 7.00065 10.3333C6.63246 10.3333 6.33398 10.0348 6.33398 9.66659V7.66659ZM7.00065 3.99992C6.44837 3.99992 6.00065 4.44763 6.00065 4.99992C6.00065 5.5522 6.44837 5.99992 7.00065 5.99992C7.55294 5.99992 8.00065 5.5522 8.00065 4.99992C8.00065 4.44763 7.55294 3.99992 7.00065 3.99992ZM0.333984 6.99992C0.333984 3.31802 3.31875 0.333252 7.00065 0.333252C10.6825 0.333252 13.6673 3.31802 13.6673 6.99992C13.6673 10.6818 10.6825 13.6666 7.00065 13.6666C3.31875 13.6666 0.333984 10.6818 0.333984 6.99992ZM7.00065 1.66659C4.05513 1.66659 1.66732 4.0544 1.66732 6.99992C1.66732 9.94544 4.05513 12.3333 7.00065 12.3333C9.94617 12.3333 12.334 9.94544 12.334 6.99992C12.334 4.0544 9.94617 1.66659 7.00065 1.66659Z" />
</svg>
