<svg width="18" height="18" viewBox="0 0 18 18" xmlns="http://www.w3.org/2000/svg">
<path d="M0 3.25C0 1.45507 1.45507 0 3.25 0H14.75C16.5449 0 18 1.45507 18 3.25V14.75C18 16.5449 16.5449 18 14.75 18H3.25C1.45507 18 0 16.5449 0 14.75V3.25ZM9.5 6.25C9.5 6.66421 9.83579 7 10.25 7H13.75C14.1642 7 14.5 6.66421 14.5 6.25C14.5 5.83579 14.1642 5.5 13.75 5.5H10.25C9.83579 5.5 9.5 5.83579 9.5 6.25ZM10.2501 11C9.83585 11 9.50006 11.3358 9.50006 11.75C9.50006 12.1642 9.83585 12.5 10.2501 12.5H13.7499C14.1642 12.5 14.4999 12.1642 14.4999 11.75C14.4999 11.3358 14.1642 11 13.7499 11H10.2501ZM7.78033 5.78033C8.07322 5.48744 8.07322 5.01256 7.78033 4.71967C7.48744 4.42678 7.01256 4.42678 6.71967 4.71967L5.25 6.18934L4.78033 5.71967C4.48744 5.42678 4.01256 5.42678 3.71967 5.71967C3.42678 6.01256 3.42678 6.48744 3.71967 6.78033L4.71967 7.78033C5.01256 8.07322 5.48744 8.07322 5.78033 7.78033L7.78033 5.78033ZM7.78033 10.2197C7.48744 9.92678 7.01256 9.92678 6.71967 10.2197L5.25 11.6893L4.78033 11.2197C4.48744 10.9268 4.01256 10.9268 3.71967 11.2197C3.42678 11.5126 3.42678 11.9874 3.71967 12.2803L4.71967 13.2803C5.01256 13.5732 5.48744 13.5732 5.78033 13.2803L7.78033 11.2803C8.07322 10.9874 8.07322 10.5126 7.78033 10.2197Z"/>
</svg>
