<svg width="16" height="14" viewBox="0 0 16 14" xmlns="http://www.w3.org/2000/svg">
<path d="M10 3.03967L6 0.239674V10.9603L10 13.7603V3.03967ZM11 13.7603L15.7867 10.4096C15.9204 10.3161 16 10.1632 16 10V0.500001C16 0.313564 15.8963 0.142611 15.7309 0.0565121C15.5655 -0.0295868 15.366 -0.0165295 15.2133 0.0903855L11 3.03967V13.7603ZM0.213269 3.59039L5 0.239674V10.9603L0.786731 13.9096C0.633995 14.0165 0.434461 14.0296 0.269095 13.9435C0.103728 13.8574 0 13.6864 0 13.5V4C0 3.83684 0.0796055 3.68395 0.213269 3.59039Z"/>
</svg>
