<svg width="12" height="12" viewBox="0 0 12 12" xmlns="http://www.w3.org/2000/svg">
<path d="M5.79166 11.2083C8.78328 11.2083 11.2083 8.78328 11.2083 5.79166C11.2083 2.80004 8.78328 0.375 5.79166 0.375C2.80004 0.375 0.375 2.80004 0.375 5.79166C0.375 8.78328 2.80004 11.2083 5.79166 11.2083Z" stroke="#134686" stroke-width="0.75" stroke-linecap="round" stroke-linejoin="round"/>
<path d="M7.41662 3.8952C7.04558 3.52416 6.39233 3.26633 5.79162 3.25008M5.79162 3.25008C5.07662 3.23058 4.43746 3.55395 4.43746 4.43687C4.43746 6.06186 7.41662 5.24936 7.41662 6.87436C7.41662 7.80115 6.62362 8.19928 5.79162 8.16948M5.79162 3.25008V2.2702M4.16663 7.41603C4.51546 7.88186 5.16492 8.14728 5.79162 8.16948M5.79162 8.16948V9.31186" stroke="#134686" stroke-width="0.75" stroke-linecap="round" stroke-linejoin="round"/>
</svg>
