<svg width="12" height="8" viewBox="0 0 12 8" fill="none" xmlns="http://www.w3.org/2000/svg">
<path d="M6.77018 3.2293C6.77018 4.08074 6.07995 4.77097 5.22852 4.77097C4.37708 4.77097 3.68685 4.08074 3.68685 3.2293C3.68685 2.37786 4.37708 1.68763 5.22852 1.68763C6.07995 1.68763 6.77018 2.37786 6.77018 3.2293ZM5.99935 3.2293C5.99935 2.80358 5.65424 2.45847 5.22852 2.45847C4.8028 2.45847 4.45768 2.80358 4.45768 3.2293C4.45768 3.65502 4.8028 4.00013 5.22852 4.00013C5.65424 4.00013 5.99935 3.65502 5.99935 3.2293ZM0.603516 1.10951C0.603516 0.577358 1.03491 0.145966 1.56706 0.145966H8.88997C9.42212 0.145966 9.85352 0.577358 9.85352 1.10951V5.34909C9.85352 5.88124 9.42212 6.31263 8.88997 6.31263H1.56706C1.03491 6.31263 0.603516 5.88124 0.603516 5.34909V1.10951ZM1.56706 0.916799C1.46063 0.916799 1.37435 1.00308 1.37435 1.10951V1.68763H1.75977C1.97263 1.68763 2.14518 1.51508 2.14518 1.30222V0.916799H1.56706ZM1.37435 5.34909C1.37435 5.45552 1.46063 5.5418 1.56706 5.5418H2.14518V5.15638C2.14518 4.94352 1.97263 4.77097 1.75977 4.77097H1.37435V5.34909ZM2.91602 5.15638V5.5418H7.54102V5.15638C7.54102 4.5178 8.05869 4.00013 8.69727 4.00013H9.08268V2.45847H8.69727C8.05869 2.45847 7.54102 1.94079 7.54102 1.30222V0.916799H2.91602V1.30222C2.91602 1.94079 2.39834 2.45847 1.75977 2.45847H1.37435V4.00013H1.75977C2.39834 4.00013 2.91602 4.5178 2.91602 5.15638ZM8.31185 5.5418H8.88997C8.9964 5.5418 9.08268 5.45552 9.08268 5.34909V4.77097H8.69727C8.48441 4.77097 8.31185 4.94352 8.31185 5.15638V5.5418ZM9.08268 1.68763V1.10951C9.08268 1.00308 8.9964 0.916799 8.88997 0.916799H8.31185V1.30222C8.31185 1.51508 8.48441 1.68763 8.69727 1.68763H9.08268ZM3.30143 7.8543C2.78759 7.8543 2.35204 7.51912 2.20149 7.05547C2.30843 7.07388 2.4184 7.08347 2.5306 7.08347H8.88997C9.84784 7.08347 10.6243 6.30696 10.6243 5.34909V1.75343C11.0734 1.91215 11.3952 2.34044 11.3952 2.84388V5.34909C11.3952 6.73268 10.2736 7.8543 8.88997 7.8543H3.30143Z" fill="#134686"/>
</svg>
