<svg width="11" height="9" xmlns="http://www.w3.org/2000/svg">
<path d="M10.5 9H0V8.25H10.5V9ZM10.5 7.5H0V6.75H10.5V7.5ZM9.75 0C9.94876 0.000504902 10.1388 0.0801601 10.2793 0.220703C10.4198 0.361246 10.4995 0.551243 10.5 0.75V5.25C10.4997 5.44883 10.4209 5.63968 10.2803 5.78027C10.1397 5.92087 9.94883 5.99973 9.75 6H0.75C0.551243 5.9995 0.361246 5.91984 0.220703 5.7793C0.0801601 5.63875 0.000504902 5.44876 0 5.25V0.75C0.000504902 0.551243 0.0801602 0.361246 0.220703 0.220703C0.361246 0.0801601 0.551243 0.000504902 0.75 0H9.75ZM0.75 5.25H9.75V0.75H0.75V5.25ZM4.95703 1.5293C5.248 1.47142 5.55013 1.50073 5.82422 1.61426C6.09823 1.7278 6.33229 1.92038 6.49707 2.16699C6.66182 2.41363 6.75 2.7034 6.75 3C6.74955 3.39769 6.59175 3.77934 6.31055 4.06055C6.02934 4.34175 5.64769 4.49955 5.25 4.5C4.9534 4.5 4.66363 4.41182 4.41699 4.24707C4.17038 4.08229 3.9778 3.84823 3.86426 3.57422C3.75073 3.30013 3.72142 2.998 3.7793 2.70703C3.83723 2.41622 3.97977 2.14913 4.18945 1.93945C4.39913 1.72977 4.66622 1.58723 4.95703 1.5293ZM2.25 2.25C2.44891 2.25 2.63962 2.32907 2.78027 2.46973C2.92093 2.61038 3 2.80109 3 3C3 3.14834 2.95643 3.29366 2.87402 3.41699C2.79161 3.54032 2.67415 3.6366 2.53711 3.69336C2.40009 3.7501 2.24897 3.76429 2.10352 3.73535C1.95811 3.70639 1.82457 3.63511 1.71973 3.53027C1.61489 3.42543 1.54361 3.29189 1.51465 3.14648C1.48571 3.00103 1.4999 2.84991 1.55664 2.71289C1.6134 2.57585 1.70968 2.45839 1.83301 2.37598C1.95634 2.29357 2.10166 2.25 2.25 2.25ZM5.25 2.25C5.10166 2.25 4.95634 2.29357 4.83301 2.37598C4.70968 2.45839 4.6134 2.57585 4.55664 2.71289C4.4999 2.84992 4.48571 3.00103 4.51465 3.14648C4.54361 3.29189 4.61489 3.42543 4.71973 3.53027C4.82457 3.63511 4.95811 3.70639 5.10352 3.73535C5.24897 3.76429 5.40009 3.7501 5.53711 3.69336C5.67415 3.6366 5.79161 3.54032 5.87402 3.41699C5.95643 3.29366 6 3.14834 6 3C5.9998 2.80115 5.92088 2.61034 5.78027 2.46973C5.63966 2.32912 5.44885 2.2502 5.25 2.25ZM8.25 2.25C8.44891 2.25 8.63962 2.32907 8.78027 2.46973C8.92093 2.61038 9 2.80109 9 3C9 3.14834 8.95643 3.29366 8.87402 3.41699C8.79161 3.54032 8.67415 3.6366 8.53711 3.69336C8.40009 3.7501 8.24897 3.76429 8.10352 3.73535C7.95811 3.70639 7.82457 3.63511 7.71973 3.53027C7.61489 3.42543 7.54361 3.29189 7.51465 3.14648C7.48571 3.00103 7.4999 2.84991 7.55664 2.71289C7.6134 2.57585 7.70968 2.45839 7.83301 2.37598C7.95634 2.29357 8.10166 2.25 8.25 2.25Z" />
</svg>
