<svg width="21" height="19" viewBox="0 0 21 19" fill="none" xmlns="http://www.w3.org/2000/svg">
<path d="M3 2.25C3 1.00736 4.00736 0 5.25 0H14.75C15.9926 0 17 1.00736 17 2.25V11H21V14.75C21 16.5449 19.5449 18 17.75 18H11.95C11.9828 17.8384 12 17.6712 12 17.5V13.5C12 12.1193 10.8807 11 9.5 11H3V2.25ZM17 16.5H17.75C18.7165 16.5 19.5 15.7165 19.5 14.75V12.5H17V16.5ZM6.5 4.75C6.5 5.16421 6.83579 5.5 7.25 5.5H12.75C13.1642 5.5 13.5 5.16421 13.5 4.75C13.5 4.33579 13.1642 4 12.75 4H7.25C6.83579 4 6.5 4.33579 6.5 4.75ZM7.25 8C6.83579 8 6.5 8.33579 6.5 8.75C6.5 9.16421 6.83579 9.5 7.25 9.5H12.75C13.1642 9.5 13.5 9.16421 13.5 8.75C13.5 8.33579 13.1642 8 12.75 8H7.25ZM1.5 12C0.671573 12 0 12.6716 0 13.5V17.5C0 18.3284 0.671573 19 1.5 19H9.5C10.3284 19 11 18.3284 11 17.5V13.5C11 12.6716 10.3284 12 9.5 12H1.5ZM9 13C9 13.5523 9.44771 14 10 14V15C8.89543 15 8 14.1046 8 13H9ZM8 18C8 16.8954 8.89543 16 10 16V17C9.44771 17 9 17.4477 9 18H8ZM1 14C1.55229 14 2 13.5523 2 13H3C3 14.1046 2.10457 15 1 15V14ZM1 16C2.10457 16 3 16.8954 3 18H2C2 17.4477 1.55228 17 1 17V16ZM5.5 13.75C6.4665 13.75 7.25 14.5335 7.25 15.5C7.25 16.4665 6.4665 17.25 5.5 17.25C4.5335 17.25 3.75 16.4665 3.75 15.5C3.75 14.5335 4.5335 13.75 5.5 13.75Z" fill="#0060FE"/>
</svg>
