<svg width="13" height="14" viewBox="0 0 13 14" xmlns="http://www.w3.org/2000/svg">
<path d="M7.5 0C7.76498 0.000765122 8.01868 0.106575 8.20605 0.293945C8.39342 0.481316 8.49924 0.735019 8.5 1V1.5H10C10.265 1.50077 10.5187 1.60657 10.7061 1.79395C10.8934 1.98132 10.9992 2.23502 11 2.5V6H10V2.5H8.5V4H2.5V2.5H1V13H4.5V14H1C0.735019 13.9992 0.481316 13.8934 0.293945 13.7061C0.106575 13.5187 0.000765122 13.265 0 13V2.5C0.000765122 2.23502 0.106575 1.98132 0.293945 1.79395C0.481316 1.60657 0.735019 1.50077 1 1.5H2.5V1C2.50077 0.735019 2.60657 0.481316 2.79395 0.293945C2.98132 0.106575 3.23502 0.000765122 3.5 0H7.5ZM10.1152 9.66016L12.5 10L10.75 11.584L11.5 14L9 12.6035L6.5 14L7.25 11.584L5.5 10L7.9502 9.66016L9 7.5L10.1152 9.66016ZM3.5 1V3H7.5V1H3.5Z" />
</svg>
