<svg width="16" height="20" viewBox="0 0 16 20" fill="none" xmlns="http://www.w3.org/2000/svg">
<path d="M13.75 0C14.9409 0 15.9156 0.925251 15.9948 2.09615L16 2.25022V17.7498C16 18.9408 15.0748 19.9156 13.904 19.9948L13.75 20H2.25002C1.05914 20 0.0843558 19.0747 0.00519089 17.9038L0 17.7498V2.25022C0 1.05924 0.925169 0.0843633 2.09597 0.00519135L2.25002 0H13.75ZM4.50516 3.0045C3.67673 3.0045 3.00515 3.67614 3.00515 4.50465C3.00515 5.33315 3.67673 6.00479 4.50516 6.00479H11.5052C12.3337 6.00479 13.0052 5.33315 13.0052 4.50465C13.0052 3.67614 12.3337 3.0045 11.5052 3.0045H4.50516Z" fill="#0060FE"/>
</svg>
