<svg width="21" height="21" viewBox="0 0 21 21" xmlns="http://www.w3.org/2000/svg">
<path d="M10.5 20.25C4.97715 20.25 0.5 15.7728 0.5 10.25C0.5 4.72715 4.97715 0.25 10.5 0.25C16.0228 0.25 20.5 4.72715 20.5 10.25C20.5 15.7728 16.0228 20.25 10.5 20.25ZM15.5 11.75C15.5 10.9216 14.8284 10.25 14 10.25H7C6.17157 10.25 5.5 10.9216 5.5 11.75V12.25C5.5 14.2214 7.35951 16.25 10.5 16.25C13.6405 16.25 15.5 14.2214 15.5 12.25V11.75ZM13.25 6.5C13.25 4.98122 12.0188 3.75 10.5 3.75C8.98122 3.75 7.75 4.98122 7.75 6.5C7.75 8.01878 8.98122 9.25 10.5 9.25C12.0188 9.25 13.25 8.01878 13.25 6.5Z" />
</svg>
