<svg width="14" height="14" viewBox="0 0 14 14" xmlns="http://www.w3.org/2000/svg">
<path d="M13 0C13.2651 0.000304367 13.5196 0.105498 13.707 0.292969C13.8945 0.480439 13.9997 0.734877 14 1V14H0V7C0.000264738 6.73486 0.10549 6.48045 0.292969 6.29297C0.480448 6.10549 0.734865 6.00026 1 6H6V1C6.00026 0.734865 6.10549 0.480448 6.29297 0.292969C6.48045 0.10549 6.73486 0.000264738 7 0H13ZM7 7H1V13H2.5V9C2.5 8.86739 2.55272 8.74025 2.64648 8.64648C2.74025 8.55272 2.86739 8.5 3 8.5H6C6.13261 8.5 6.25975 8.55272 6.35352 8.64648C6.44728 8.74025 6.5 8.86739 6.5 9V13H13V1H7V7ZM3.5 13H5.5V9.5H3.5V13ZM9 10H8V9H9V10ZM12 10H11V9H12V10ZM9 7H8V6H9V7ZM12 7H11V6H12V7ZM5 1H4C3.73488 1.0003 3.48044 1.1055 3.29297 1.29297C3.1055 1.48044 3.0003 1.73488 3 2V2.5H1.75C1.55109 2.5 1.36038 2.57907 1.21973 2.71973C1.07907 2.86038 1 3.05109 1 3.25C1 3.44891 1.07907 3.63962 1.21973 3.78027C1.36038 3.92093 1.55109 4 1.75 4H5V5H1.75C1.28587 5 0.840884 4.81549 0.512695 4.4873C0.184507 4.15912 0 3.71413 0 3.25C0 2.78587 0.184507 2.34088 0.512695 2.0127C0.840884 1.68451 1.28587 1.5 1.75 1.5H2.06348C2.17476 1.07112 2.42519 0.691338 2.77539 0.419922C3.12582 0.148484 3.55674 0.000529273 4 0H5V1ZM9 4H8V3H9V4ZM12 4H11V3H12V4Z"/>
</svg>
