<svg width="11" height="11" viewBox="0 0 11 11" xmlns="http://www.w3.org/2000/svg">
<path d="M9.75 0C9.94884 0.000228275 10.1397 0.0791238 10.2803 0.219727C10.4209 0.360329 10.4998 0.551158 10.5 0.75V10.5H0V5.25C0.000198554 5.05115 0.0791173 4.86034 0.219727 4.71973C0.360336 4.57912 0.551149 4.5002 0.75 4.5H4.5V0.75C4.5002 0.551149 4.57912 0.360336 4.71973 0.219727C4.86034 0.0791173 5.05115 0.000198554 5.25 0H9.75ZM5.25 5.25H0.75V9.75H1.875V6.75C1.875 6.65054 1.91405 6.5547 1.98438 6.48438C2.0547 6.41405 2.15054 6.375 2.25 6.375H4.5C4.59946 6.375 4.6953 6.41405 4.76562 6.48438C4.83595 6.5547 4.875 6.65054 4.875 6.75V9.75H9.75V0.75H5.25V5.25ZM2.625 9.75H4.125V7.125H2.625V9.75ZM6.75 7.5H6V6.75H6.75V7.5ZM9 6.75V7.5H8.25V6.75H9ZM6.75 5.25H6V4.5H6.75V5.25ZM9 5.25H8.25V4.5H9V5.25ZM6.75 3H6V2.25H6.75V3ZM9 3H8.25V2.25H9V3Z" />
</svg>
