<svg width="13" height="10" xmlns="http://www.w3.org/2000/svg">
<path d="M8.75 0C8.86603 0 8.97752 0.0458839 9.05957 0.12793C9.14162 0.209977 9.1875 0.321468 9.1875 0.4375V1.3125H10.5C10.5856 1.31245 10.6697 1.3376 10.7412 1.38477C10.8126 1.43193 10.8688 1.49946 10.9023 1.57812L12.2148 4.64062C12.2381 4.69491 12.25 4.75343 12.25 4.8125V7.875C12.25 7.99103 12.2041 8.10252 12.1221 8.18457C12.04 8.26662 11.9285 8.3125 11.8125 8.3125H10.875C10.7796 8.68758 10.5623 9.02016 10.2568 9.25781C9.95117 9.4955 9.5747 9.625 9.1875 9.625C8.8003 9.625 8.42383 9.4955 8.11816 9.25781C7.81273 9.02016 7.59537 8.68757 7.5 8.3125H4.75C4.64351 8.72485 4.39055 9.0842 4.03809 9.32324C3.68556 9.5623 3.2575 9.665 2.83496 9.61133C2.41274 9.5576 2.02462 9.35151 1.74316 9.03223C1.46159 8.71263 1.30566 8.30094 1.30566 7.875C1.30566 7.44906 1.46159 7.03737 1.74316 6.71777C2.02462 6.39849 2.41274 6.1924 2.83496 6.13867C3.2575 6.085 3.68556 6.1877 4.03809 6.42676C4.39055 6.6658 4.64351 7.02515 4.75 7.4375H7.5C7.55824 7.2145 7.65934 7.00477 7.79883 6.82129C7.93833 6.63781 8.11319 6.48391 8.3125 6.36816V0.875H1.75V0H8.75ZM2.8916 7.0166C2.72193 7.05038 2.56569 7.13352 2.44336 7.25586C2.32102 7.3782 2.23788 7.53443 2.2041 7.7041C2.17034 7.87384 2.18768 8.05008 2.25391 8.20996C2.32011 8.36978 2.43235 8.5064 2.57617 8.60254C2.72006 8.69868 2.88944 8.75 3.0625 8.75C3.29448 8.74973 3.51663 8.6572 3.68066 8.49316C3.8447 8.32913 3.93723 8.10698 3.9375 7.875C3.9375 7.70194 3.88619 7.53256 3.79004 7.38867C3.6939 7.24485 3.55728 7.13261 3.39746 7.06641C3.23758 7.00018 3.06133 6.98284 2.8916 7.0166ZM9.0166 7.0166C8.84693 7.05038 8.69069 7.13352 8.56836 7.25586C8.44602 7.3782 8.36288 7.53443 8.3291 7.7041C8.29534 7.87384 8.31268 8.05008 8.37891 8.20996C8.44511 8.36978 8.55735 8.5064 8.70117 8.60254C8.84506 8.69868 9.01444 8.75 9.1875 8.75C9.41948 8.74973 9.64163 8.6572 9.80566 8.49316C9.9697 8.32913 10.0622 8.10698 10.0625 7.875C10.0625 7.70194 10.0112 7.53256 9.91504 7.38867C9.8189 7.24485 9.68228 7.13261 9.52246 7.06641C9.36258 7.00018 9.18633 6.98284 9.0166 7.0166ZM9.1875 5.25V6.125C9.57442 6.12612 9.95042 6.25564 10.2559 6.49316C10.5611 6.73065 10.7786 7.06291 10.875 7.4375H11.375V5.25H9.1875ZM6.125 5.25H0.875V4.375H6.125V5.25ZM9.1875 2.1875V4.375H11.1494L10.2119 2.1875H9.1875ZM4.375 3.0625H0V2.1875H4.375V3.0625Z" />
</svg>
