<svg width="51" height="50" viewBox="0 0 51 50" fill="none" xmlns="http://www.w3.org/2000/svg">
<path d="M24.2888 0.92166C25.0045 0.377093 25.9955 0.377092 26.7112 0.921659L29.3227 2.90901C29.7984 3.27102 30.4111 3.40125 30.993 3.26403L34.1871 2.51072C35.0623 2.3043 35.9677 2.70741 36.4 3.49596L37.9775 6.37372C38.2648 6.89792 38.7716 7.26611 39.3589 7.3774L42.5833 7.98838C43.4668 8.1558 44.13 8.89231 44.2041 9.78851L44.4747 13.0591C44.524 13.6548 44.8372 14.1973 45.3285 14.5379L48.0256 16.4075C48.7646 16.9198 49.0709 17.8624 48.7741 18.7113L47.6911 21.8091C47.4938 22.3734 47.5593 22.9964 47.8696 23.5073L49.573 26.3124C50.0398 27.081 49.9362 28.0666 49.3198 28.7214L47.0704 31.1109C46.6606 31.5462 46.4671 32.1419 46.5427 32.7349L46.958 35.9903C47.0718 36.8823 46.5763 37.7406 45.7469 38.0881L42.72 39.3561C42.1686 39.5871 41.7495 40.0526 41.5774 40.625L40.6327 43.7679C40.3739 44.6291 39.5721 45.2116 38.6731 45.1917L35.3921 45.1189C34.7945 45.1057 34.2222 45.3605 33.8322 45.8135L31.6909 48.3004C31.1041 48.9818 30.1347 49.1879 29.3215 48.804L26.3538 47.403C25.8132 47.1479 25.1868 47.1479 24.6462 47.403L21.6785 48.804C20.8653 49.1879 19.8959 48.9818 19.3091 48.3004L17.1678 45.8135C16.7778 45.3605 16.2055 45.1057 15.6079 45.1189L12.327 45.1917C11.4279 45.2116 10.6261 44.6291 10.3673 43.7679L9.42259 40.625C9.25051 40.0526 8.83137 39.5871 8.28001 39.3561L5.25312 38.0881C4.42371 37.7406 3.92817 36.8823 4.04197 35.9903L4.45728 32.7349C4.53293 32.1419 4.33936 31.5462 3.92961 31.1109L1.68016 28.7214C1.06378 28.0666 0.960182 27.081 1.42696 26.3124L3.13044 23.5073C3.44074 22.9964 3.50622 22.3734 3.30893 21.8091L2.22587 18.7113C1.92909 17.8624 2.23535 16.9198 2.9744 16.4075L5.67151 14.5379C6.1628 14.1973 6.476 13.6548 6.52529 13.0591L6.79589 9.78851C6.87003 8.89232 7.53319 8.1558 8.41672 7.98838L11.6411 7.3774C12.2284 7.26611 12.7352 6.89792 13.0225 6.37372L14.6 3.49596C15.0323 2.70741 15.9377 2.3043 16.8129 2.51072L20.007 3.26403C20.5889 3.40125 21.2016 3.27102 21.6773 2.90901L24.2888 0.92166Z" fill="#35E744"/>
<path d="M22.5 29.5858L18.7071 25.7929C18.3166 25.4024 17.6834 25.4024 17.2929 25.7929C16.9024 26.1834 16.9024 26.8166 17.2929 27.2071L21.7929 31.7071C22.1834 32.0976 22.8166 32.0976 23.2071 31.7071L34.2071 20.7071C34.5976 20.3166 34.5976 19.6834 34.2071 19.2929C33.8166 18.9024 33.1834 18.9024 32.7929 19.2929L22.5 29.5858Z" fill="white"/>
</svg>
