<svg width="8" height="11" viewBox="0 0 8 11" xmlns="http://www.w3.org/2000/svg">
<path d="M4.875 6C5.57119 6 6.23916 6.27627 6.73145 6.76855C7.22373 7.26084 7.5 7.92881 7.5 8.625V10.5H6.75V8.625C6.75 8.12772 6.5528 7.65046 6.20117 7.29883C5.84954 6.9472 5.37228 6.75 4.875 6.75H2.625C2.12772 6.75 1.65046 6.9472 1.29883 7.29883C0.947197 7.65046 0.75 8.12772 0.75 8.625V10.5H0V8.625C0 7.92881 0.276272 7.26084 0.768555 6.76855C1.26084 6.27627 1.92881 6 2.625 6H4.875ZM3.75 0C4.44619 0 5.11416 0.276272 5.60645 0.768555C6.09873 1.26084 6.375 1.92881 6.375 2.625C6.375 3.14407 6.22095 3.65138 5.93262 4.08301C5.64426 4.51456 5.23436 4.8511 4.75488 5.0498C4.27532 5.24844 3.74739 5.30042 3.23828 5.19922C2.72908 5.09793 2.26067 4.84856 1.89355 4.48145C1.52644 4.11433 1.27707 3.64592 1.17578 3.13672C1.07458 2.62762 1.12656 2.09967 1.3252 1.62012C1.5239 1.14064 1.86044 0.730737 2.29199 0.442383C2.72362 0.154054 3.23093 2.47399e-07 3.75 0ZM3.75 0.75C3.25272 0.75 2.77546 0.947198 2.42383 1.29883C2.0722 1.65046 1.875 2.12772 1.875 2.625C1.875 2.99584 1.98538 3.35865 2.19141 3.66699C2.39739 3.9751 2.68983 4.21556 3.03223 4.35742C3.37484 4.49934 3.7525 4.53621 4.11621 4.46387C4.47976 4.39147 4.81405 4.21329 5.07617 3.95117C5.33829 3.68905 5.51647 3.35476 5.58887 2.99121C5.66121 2.6275 5.62434 2.24984 5.48242 1.90723C5.34056 1.56483 5.1001 1.27239 4.79199 1.06641C4.48365 0.860379 4.12084 0.75 3.75 0.75Z" />
</svg>
