<svg width="16" height="16" viewBox="0 0 16 16" xmlns="http://www.w3.org/2000/svg">
<path d="M3 0C1.34315 0 0 1.34315 0 3V11C0 12.6569 1.34315 14 3 14H6.60101C6.20958 13.2329 6 12.3773 6 11.5C6 10.4122 6.32257 9.34884 6.92692 8.44437C7.53126 7.5399 8.39025 6.83495 9.39524 6.41866C10.4002 6.00238 11.5061 5.89346 12.573 6.10568C13.0719 6.20492 13.5518 6.37229 14 6.60102V3C14 1.34315 12.6569 0 11 0H3ZM6.35357 3.39646C6.54882 3.59172 6.54881 3.9083 6.35355 4.10356L4.60355 5.85347C4.41451 6.04251 4.11021 6.04939 3.91281 5.8691L3.16281 5.1841C2.95891 4.99788 2.94459 4.68162 3.13081 4.47772C3.31704 4.27382 3.6333 4.2595 3.8372 4.44572L4.23436 4.80847L5.64646 3.39644C5.84173 3.20118 6.15831 3.20119 6.35357 3.39646ZM5.64646 8.39644C5.84173 8.20118 6.15831 8.20119 6.35357 8.39646C6.54882 8.59172 6.54881 8.90831 6.35355 9.10356L4.60355 10.8535C4.41451 11.0425 4.11021 11.0494 3.91281 10.8691L3.16281 10.1841C2.95891 9.99788 2.94459 9.68162 3.13081 9.47772C3.31704 9.27382 3.6333 9.2595 3.8372 9.44572L4.23436 9.80847L5.64646 8.39644ZM8 5C7.72386 5 7.5 4.77614 7.5 4.5C7.5 4.22386 7.72386 4 8 4H10.5C10.7761 4 11 4.22386 11 4.5C11 4.77614 10.7761 5 10.5 5H8ZM7.63435 10.9198C7.89258 10.8537 8.135 10.7367 8.34737 10.5756C8.55973 10.4146 8.73776 10.2127 8.87099 9.98179C9.00421 9.75093 9.08995 9.49577 9.12315 9.2313C9.15636 8.96683 9.13636 8.6984 9.06435 8.44177L8.90835 7.88477C9.16299 7.68818 9.43868 7.52049 9.73035 7.38477L10.0673 7.74277C10.2543 7.94101 10.4798 8.09895 10.73 8.20691C10.9802 8.31486 11.2498 8.37055 11.5223 8.37055C11.7948 8.37055 12.0645 8.31486 12.3147 8.20691C12.5649 8.09895 12.7904 7.94101 12.9773 7.74277L13.2993 7.39977C13.5968 7.53956 13.877 7.71339 14.1343 7.91777L14.0083 8.33977C13.9303 8.6008 13.9065 8.87502 13.9382 9.1456C13.97 9.41618 14.0567 9.67742 14.193 9.9133C14.3294 10.1492 14.5125 10.3547 14.7311 10.5173C14.9497 10.6799 15.1992 10.7961 15.4643 10.8588L15.8133 10.9408C15.8355 11.1249 15.8465 11.3103 15.8463 11.4958C15.8463 11.6518 15.8383 11.8058 15.8233 11.9578L15.3633 12.0758C15.105 12.1417 14.8625 12.2586 14.65 12.4197C14.4375 12.5807 14.2594 12.7826 14.1261 13.0135C13.9927 13.2443 13.9069 13.4995 13.8737 13.764C13.8404 14.0286 13.8603 14.2971 13.9323 14.5538L14.0883 15.1098C13.8341 15.3069 13.5583 15.4746 13.2663 15.6098L12.9293 15.2518C12.7424 15.0537 12.517 14.8959 12.2668 14.788C12.0167 14.6801 11.7472 14.6245 11.4748 14.6245C11.2025 14.6245 10.933 14.6801 10.6829 14.788C10.4327 14.8959 10.2073 15.0537 10.0203 15.2518L9.69935 15.5998C9.40232 15.4592 9.1222 15.2854 8.86435 15.0818L8.99035 14.6588C9.06836 14.3977 9.09221 14.1235 9.06045 13.8529C9.02869 13.5823 8.94198 13.3211 8.80565 13.0852C8.66931 12.8494 8.48622 12.6438 8.26761 12.4812C8.049 12.3187 7.79947 12.2025 7.53435 12.1398L7.18535 12.0568C7.16319 11.8729 7.15217 11.6879 7.15235 11.5028C7.15235 11.3468 7.16035 11.1928 7.17535 11.0408L7.63435 10.9198ZM12.4993 11.4998C12.4993 11.2345 12.394 10.9802 12.2065 10.7927C12.0189 10.6051 11.7646 10.4998 11.4993 10.4998C11.3016 10.4998 11.1082 10.5584 10.9438 10.6683C10.7793 10.7782 10.6512 10.9344 10.5755 11.1171C10.4998 11.2998 10.48 11.5009 10.5186 11.6949C10.5571 11.8888 10.6524 12.067 10.7922 12.2069C10.9321 12.3467 11.1103 12.442 11.3043 12.4806C11.4982 12.5191 11.6993 12.4993 11.882 12.4236C12.0648 12.348 12.2209 12.2198 12.3308 12.0553C12.4407 11.8909 12.4993 11.6975 12.4993 11.4998Z"/>
</svg>
